<?xml version="1.0" standalone="no"?>
<!DOCTYPE svg PUBLIC "-//W3C//DTD SVG 20010904//EN"
 "http://www.w3.org/TR/2001/REC-SVG-20010904/DTD/svg10.dtd">
<svg version="1.0" xmlns="http://www.w3.org/2000/svg"
 width="20" height="20" viewBox="0 0 428 389.11"
 preserveAspectRatio="xMidYMid meet">

<g transform="translate(0.000000,400.000000) scale(0.15,-0.15)"
fill="#000000" stroke="none">
<path d="M1180 2639 c-319 -36 -630 -201 -842 -445 -436 -503 -434 -1239 4
-1742 146 -169 365 -315 568 -380 169 -55 184 -57 420 -57 205 0 233 2 320 24
181 46 325 114 470 222 251 185 428 450 498 744 43 180 51 320 27 495 -96 717
-744 1220 -1465 1139z m233 -260 c61 -66 17 -169 -73 -169 -88 0 -133 100 -75
169 42 49 102 50 148 0z m-645 19 c7 -7 12 -25 12 -40 0 -34 -41 -59 -68 -41
-21 12 -28 59 -11 79 14 17 51 18 67 2z m1211 -2 c17 -20 10 -67 -11 -79 -27
-18 -68 7 -68 41 0 15 5 33 12 40 16 16 53 15 67 -2z m-924 -16 c11 -17 -5
-50 -24 -50 -28 0 -46 26 -31 45 14 17 46 20 55 5z m629 -5 c9 -24 -4 -45 -29
-45 -25 0 -38 21 -29 45 4 8 16 15 29 15 13 0 25 -7 29 -15z m-790 -141 c32
-31 14 -84 -29 -84 -62 0 -60 98 2 100 6 0 19 -7 27 -16z m947 6 c22 -12 26
-59 7 -78 -7 -7 -21 -12 -33 -12 -43 0 -61 53 -29 84 18 19 28 20 55 6z
m-1281 -10 c41 -22 29 -105 -17 -116 -50 -13 -93 21 -93 71 0 41 67 68 110 45z
m1659 -21 c19 -34 0 -86 -35 -95 -61 -15 -110 37 -83 88 17 32 29 39 69 36 25
-2 38 -10 49 -29z m-1097 -128 c22 -25 28 -41 28 -77 0 -39 -5 -51 -34 -80
-19 -19 -43 -34 -55 -34 -15 0 -23 -10 -30 -37 -17 -61 -42 -186 -38 -189 1
-2 43 1 92 6 116 12 394 12 510 0 49 -5 91 -8 92 -6 4 4 -19 118 -36 184 -9
32 -17 42 -32 42 -12 0 -36 15 -55 34 -28 28 -34 41 -34 78 0 116 150 162 211
66 27 -44 21 -109 -14 -146 l-25 -27 25 -120 c14 -66 26 -121 27 -122 1 -1 50
-12 110 -24 l108 -21 24 24 25 24 -28 78 c-15 43 -32 80 -38 81 -5 2 -23 6
-39 10 -16 3 -42 20 -58 37 -74 79 -1 214 105 194 37 -7 81 -47 92 -84 10 -33
-2 -85 -24 -109 -18 -19 -18 -22 -2 -59 10 -21 24 -60 31 -86 12 -38 19 -47
43 -52 46 -9 87 -58 87 -103 0 -36 3 -40 54 -66 30 -16 73 -45 96 -64 l41 -36
-6 39 c-9 54 -42 164 -65 218 -18 42 -22 46 -54 46 -68 0 -120 74 -102 146 4
15 20 39 36 55 23 24 37 29 75 29 40 0 52 -5 81 -34 29 -29 34 -41 34 -79 0
-29 -7 -53 -19 -68 -18 -22 -18 -24 7 -83 98 -242 108 -528 26 -787 -103 -326
-374 -604 -694 -712 -125 -42 -225 -58 -360 -58 -307 0 -574 113 -793 336
-305 311 -400 790 -239 1206 29 75 29 76 9 100 -15 19 -18 34 -14 73 6 68 47
106 113 106 75 0 125 -65 110 -144 -9 -46 -56 -86 -102 -86 -32 0 -36 -4 -54
-44 -22 -52 -55 -164 -64 -218 l-7 -38 63 48 c35 26 77 53 94 61 28 11 32 18
37 59 6 52 38 89 87 98 23 5 30 15 45 62 9 32 24 70 32 86 14 26 13 30 -9 53
-36 38 -33 112 6 152 51 54 131 50 176 -7 25 -31 27 -108 4 -140 -18 -26 -65
-52 -93 -52 -15 0 -26 -18 -51 -82 l-31 -81 24 -25 25 -24 108 21 c60 12 110
23 111 25 2 1 10 40 18 87 9 46 21 99 27 117 9 30 7 37 -17 62 -37 39 -44 103
-15 148 25 41 53 53 110 48 34 -3 51 -11 72 -35z"/>
<path d="M990 2040 c-18 -33 -8 -73 21 -89 24 -13 29 -13 53 2 19 13 26 26 26
50 0 42 -15 57 -57 57 -22 0 -36 -6 -43 -20z"/>
<path d="M1602 2048 c-7 -7 -12 -27 -12 -45 0 -24 7 -37 26 -50 24 -15 29 -15
53 -2 29 16 41 70 20 95 -14 17 -70 19 -87 2z"/>
<path d="M697 1982 c-35 -39 -9 -102 41 -102 28 0 62 34 62 60 0 27 -35 60
-63 60 -13 0 -31 -8 -40 -18z"/>
<path d="M1907 1988 c-9 -7 -19 -25 -22 -40 -13 -53 61 -91 98 -50 48 53 -19
133 -76 90z"/>
<path d="M389 1866 c-19 -9 -24 -19 -24 -51 0 -32 5 -42 26 -54 24 -13 29 -13
53 2 19 13 26 26 26 51 0 49 -39 74 -81 52z"/>
<path d="M2239 1866 c-18 -8 -25 -21 -27 -48 -3 -31 1 -40 24 -54 23 -16 29
-16 52 -3 32 18 44 50 29 79 -16 30 -48 41 -78 26z"/>
<path d="M1061 1609 c-41 -5 -76 -10 -77 -12 -18 -18 -33 -508 -18 -584 4 -19
15 -33 33 -41 29 -13 61 -59 61 -90 0 -27 47 -32 280 -32 233 0 280 5 280 32
0 31 32 77 62 91 20 8 30 22 34 45 8 41 -2 516 -11 554 -5 19 -15 28 -38 32
-55 11 -528 15 -606 5z"/>
<path d="M560 1588 c-23 -25 -24 -31 -9 -61 15 -28 28 -37 55 -37 47 0 72 71
36 103 -25 23 -57 21 -82 -5z"/>
<path d="M2037 1592 c-35 -39 -9 -102 41 -102 28 0 62 34 62 60 0 27 -35 60
-63 60 -13 0 -31 -8 -40 -18z"/>
<path d="M880 1583 c-14 -2 -55 -11 -92 -19 -54 -13 -68 -20 -68 -35 0 -25
-55 -85 -84 -93 -20 -5 -24 -14 -30 -67 -13 -126 1 -366 24 -409 5 -9 47 -26
99 -39 l90 -23 42 43 42 44 2 255 c1 140 5 276 10 303 4 26 4 46 -1 46 -5 -1
-20 -3 -34 -6z"/>
<path d="M1765 1543 c5 -27 9 -163 10 -303 l3 -255 41 -44 42 -43 90 23 c52
13 94 30 99 39 23 43 37 283 24 408 -6 51 -10 63 -28 68 -32 10 -74 54 -81 84
-6 25 -13 30 -73 43 -37 9 -82 18 -101 21 l-34 6 8 -47z"/>
<path d="M460 1444 c-234 -134 -226 -299 22 -429 38 -20 71 -35 74 -33 2 3 -1
63 -7 134 -8 86 -8 162 -2 227 9 95 8 98 -14 112 -27 18 -20 20 -73 -11z"/>
<path d="M2145 1455 c-20 -14 -20 -20 -12 -112 6 -65 6 -141 -2 -227 -6 -71
-9 -131 -7 -134 9 -8 147 71 190 109 75 66 95 142 57 217 -25 48 -61 82 -135
126 -68 41 -64 40 -91 21z"/>
<path d="M320 1043 c0 -3 17 -37 37 -75 56 -107 241 -293 272 -274 6 4 3 26
-8 59 -10 28 -23 75 -30 103 -12 49 -13 50 -79 79 -37 16 -95 48 -129 71 -35
23 -63 40 -63 37z"/>
<path d="M2331 1029 c-38 -31 -131 -84 -181 -103 l-45 -17 -29 -105 c-16 -57
-26 -107 -23 -111 24 -24 216 171 270 275 22 41 37 75 35 77 -1 2 -14 -6 -27
-16z"/>
<path d="M912 914 c-42 -29 -18 -104 34 -104 54 0 77 67 34 102 -27 22 -39 22
-68 2z"/>
<path d="M1702 914 c-29 -20 -31 -79 -3 -94 47 -25 91 0 91 50 0 28 -30 60
-55 60 -6 0 -21 -7 -33 -16z"/>
<path d="M645 868 c44 -144 45 -146 76 -152 38 -7 86 -54 94 -92 4 -16 8 -34
10 -40 3 -11 153 -59 161 -51 3 2 -4 40 -15 83 -11 44 -22 90 -25 104 -4 18
-16 30 -41 39 -21 7 -44 26 -55 44 -17 27 -31 35 -102 54 -97 26 -109 27 -103
11z"/>
<path d="M1932 857 c-71 -19 -85 -26 -101 -54 -12 -18 -35 -37 -56 -44 -25 -9
-37 -21 -41 -39 -3 -14 -14 -61 -25 -104 -10 -44 -17 -81 -15 -84 8 -7 158 41
161 52 2 6 6 24 10 40 8 38 56 85 94 92 31 6 32 8 76 152 5 15 -3 15 -103 -11z"/>
<path d="M365 830 c12 -44 85 -173 136 -241 90 -121 238 -248 364 -311 91 -46
98 -42 33 19 -33 32 -82 87 -108 122 -46 61 -49 63 -95 65 -40 2 -52 7 -76 34
-16 18 -30 42 -30 55 -1 12 -2 31 -3 43 -1 13 -29 44 -79 84 -43 34 -94 83
-114 109 -26 34 -34 39 -28 21z"/>
<path d="M2280 800 c-17 -21 -66 -67 -108 -101 -56 -45 -76 -68 -74 -83 4 -31
-16 -81 -44 -107 -18 -16 -38 -24 -71 -25 -44 -2 -48 -4 -93 -65 -26 -35 -75
-90 -108 -122 -65 -61 -58 -65 33 -19 204 101 418 334 495 537 13 35 7 31 -30
-15z"/>
<path d="M1019 777 l-22 -17 27 -113 c15 -61 30 -118 35 -125 20 -32 344 -48
488 -23 l72 13 15 46 c8 26 22 82 32 125 l18 77 -23 17 c-21 14 -64 16 -322
17 -271 1 -300 -1 -320 -17z"/>
<path d="M660 640 c-24 -24 -25 -48 -4 -78 30 -43 104 -17 104 36 0 28 -34 62
-60 62 -11 0 -29 -9 -40 -20z"/>
<path d="M1940 640 c-39 -39 -14 -100 43 -100 28 0 57 32 57 62 0 24 -35 58
-60 58 -11 0 -29 -9 -40 -20z"/>
<path d="M790 522 c0 -16 98 -137 149 -185 60 -55 185 -137 209 -137 7 0 -3
19 -21 43 -17 23 -50 81 -71 127 l-40 86 -113 36 c-62 19 -113 33 -113 30z"/>
<path d="M1772 491 c-85 -27 -114 -41 -118 -56 -13 -42 -77 -162 -105 -197
-18 -23 -25 -38 -17 -38 26 0 141 75 205 134 57 52 161 183 152 190 -2 1 -55
-14 -117 -33z"/>
<path d="M1090 435 c0 -3 16 -37 36 -76 45 -90 112 -163 170 -185 41 -16 47
-16 88 0 58 22 125 95 171 186 20 40 34 74 32 76 -2 3 -63 0 -135 -6 -73 -5
-137 -8 -144 -6 -22 7 -218 16 -218 11z"/>
</g>
</svg>
